<svg width="498" height="43" viewBox="0 0 498 43" fill="none" xmlns="http://www.w3.org/2000/svg">
<path d="M0.664062 3.875V2.1875H25.9766V3.875H0.664062ZM0.664062 7.25V5.5625H25.9766V7.25H0.664062ZM0.664062 10.625V8.9375H25.9766V10.625H19.2266V41H17.5391V10.625H15.8516V41H14.1641V10.625H12.4766V41H10.7891V10.625H9.10156V41H7.41406V10.625H0.664062ZM66.9453 2.1875H68.6328V41H66.9453V2.1875ZM29.8203 2.1875H31.5078V41H29.8203V2.1875ZM63.5703 2.1875H65.2578V41H63.5703V2.1875ZM60.1953 2.1875H61.8828V41H60.1953V2.1875ZM56.8203 2.1875H58.5078V41H56.8203V25.7891H41.6328V41H39.9453V2.1875H41.6328V17.3516H56.8203V2.1875ZM36.5703 2.1875H38.2578V41H36.5703V2.1875ZM33.1953 2.1875H34.8828V41H33.1953V2.1875ZM56.8203 24.1016V22.4141H41.6328V24.1016H56.8203ZM56.8203 20.7266V19.0391H41.6328V20.7266H56.8203ZM81.5234 41H79.8359V2.1875H81.5234V41ZM78.1484 41H76.4609V2.1875H78.1484V41ZM74.7734 41H73.0859V2.1875H74.7734V41ZM84.8984 32.5625H102.852V34.25H84.8984V35.9375H102.852V37.625H84.8984V39.3125H102.852V41H83.2109V2.1875H102.852V3.875H84.8984V5.5625H102.852V7.25H84.8984V8.9375H102.852V10.625H84.8984V17.375H94.1094V19.0625H84.8984V20.75H94.1094V22.4375H84.8984V24.125H94.1094V25.8125H84.8984V32.5625ZM160.977 26.8438L162.664 23.6562V41H160.977V26.8438ZM164.352 20.375L166.039 17.1875V41H164.352V20.375ZM167.727 14L169.414 10.7891V41H167.727V14ZM156.406 26.0469L155.445 24.2891L167.07 2.1875H168.969L156.406 26.0469ZM154.461 22.3672L153.477 20.5859L163.227 2.1875H165.148L154.461 22.3672ZM143.164 23.8438L144.852 27.0312V41H143.164V23.8438ZM139.789 17.4219L141.477 20.6094V41H139.789V17.4219ZM136.414 11L138.102 14.2109V41H136.414V11ZM150.055 30.875H148.156L134.727 5.39844V41H133.039V2.1875H134.938L150.055 30.875ZM153.875 30.875H151.953L136.859 2.1875H138.781L153.875 30.875ZM171.102 5.39844L157.672 30.875H155.75L140.68 2.1875H142.578L156.734 29.0938L170.867 2.1875H172.789V41H171.102V5.39844ZM204.57 23.9375V2.1875H206.258V23.9375C206.258 26.3125 205.32 28.3438 203.445 30.0312C201.57 31.7188 199.32 32.5625 196.695 32.5625C194.07 32.5625 191.82 31.7188 189.945 30.0312C188.07 28.3438 187.133 26.3125 187.133 23.9375V2.1875H188.82V23.9375C188.82 25.8438 189.586 27.4766 191.117 28.8359C192.664 30.1953 194.523 30.875 196.695 30.875C198.867 30.875 200.719 30.1953 202.25 28.8359C203.797 27.4766 204.57 25.8438 204.57 23.9375ZM207.945 23.9375V2.1875H209.633V23.9375C209.633 25.5625 209.289 27.1172 208.602 28.6016C207.914 30.0703 206.992 31.3438 205.836 32.4219C204.68 33.5 203.305 34.3594 201.711 35C200.117 35.625 198.445 35.9375 196.695 35.9375C194.945 35.9375 193.273 35.625 191.68 35C190.086 34.3594 188.711 33.5 187.555 32.4219C186.398 31.3438 185.477 30.0703 184.789 28.6016C184.102 27.1172 183.758 25.5625 183.758 23.9375V2.1875H185.445V23.9375C185.445 25.7969 185.945 27.5234 186.945 29.1172C187.961 30.6953 189.328 31.9453 191.047 32.8672C192.781 33.7891 194.664 34.25 196.695 34.25C198.727 34.25 200.602 33.7891 202.32 32.8672C204.055 31.9453 205.422 30.6953 206.422 29.1172C207.438 27.5234 207.945 25.7969 207.945 23.9375ZM211.32 23.9375V2.1875H213.008V23.9375C213.008 26.0156 212.57 28.0078 211.695 29.9141C210.836 31.8047 209.68 33.4375 208.227 34.8125C206.773 36.1875 205.039 37.2812 203.023 38.0938C201.008 38.9062 198.898 39.3125 196.695 39.3125C194.492 39.3125 192.383 38.9062 190.367 38.0938C188.352 37.2812 186.617 36.1875 185.164 34.8125C183.711 33.4375 182.547 31.8047 181.672 29.9141C180.812 28.0078 180.383 26.0156 180.383 23.9375V2.1875H182.07V23.9375C182.07 26.4062 182.727 28.6953 184.039 30.8047C185.352 32.8984 187.125 34.5625 189.359 35.7969C191.609 37.0156 194.055 37.625 196.695 37.625C199.336 37.625 201.773 37.0156 204.008 35.7969C206.258 34.5625 208.039 32.8984 209.352 30.8047C210.664 28.6953 211.32 26.4062 211.32 23.9375ZM214.695 23.9375V2.1875H216.383V23.9375C216.383 27.3125 215.5 30.4453 213.734 33.3359C211.969 36.2109 209.57 38.4922 206.539 40.1797C203.523 41.8516 200.242 42.6875 196.695 42.6875C193.148 42.6875 189.859 41.8516 186.828 40.1797C183.812 38.4922 181.422 36.2109 179.656 33.3359C177.891 30.4453 177.008 27.3125 177.008 23.9375V2.1875H178.695V23.9375C178.695 26.2344 179.172 28.4375 180.125 30.5469C181.078 32.6562 182.359 34.4766 183.969 36.0078C185.578 37.5234 187.492 38.7344 189.711 39.6406C191.945 40.5469 194.273 41 196.695 41C199.117 41 201.438 40.5469 203.656 39.6406C205.891 38.7344 207.812 37.5234 209.422 36.0078C211.031 34.4766 212.312 32.6562 213.266 30.5469C214.219 28.4375 214.695 26.2344 214.695 23.9375ZM236.375 17.375H233.539C232.336 17.375 231.469 17.0703 230.938 16.4609C230.406 15.8359 230.141 15.0156 230.141 14C230.141 11.75 231.82 10.625 235.18 10.625C238.336 10.625 240.711 11.0938 242.305 12.0312L240.945 13.0625C239.852 12.5625 237.93 12.3125 235.18 12.3125C233.836 12.3125 232.93 12.4609 232.461 12.7578C232.008 13.0547 231.781 13.4687 231.781 14C231.781 14.5313 231.906 14.9453 232.156 15.2422C232.406 15.5391 232.867 15.6875 233.539 15.6875H236.445C238.555 15.6875 240.453 16.0469 242.141 16.7656C243.844 17.4844 245.242 18.4688 246.336 19.7188C247.43 20.9531 248.266 22.3828 248.844 24.0078C249.422 25.6172 249.711 27.3438 249.711 29.1875C249.711 30.6875 249.5 32.1094 249.078 33.4531C248.656 34.7969 248.016 36.0312 247.156 37.1562C246.312 38.2812 245.289 39.2578 244.086 40.0859C242.898 40.8984 241.477 41.5312 239.82 41.9844C238.18 42.4531 236.398 42.6875 234.477 42.6875C231.461 42.6875 228.633 42.2266 225.992 41.3047C223.367 40.3984 221.18 39.125 219.43 37.4844L220.789 36.4766C222.383 37.9141 224.375 39.0312 226.766 39.8281C229.172 40.6094 231.742 41 234.477 41C236.617 41 238.547 40.6953 240.266 40.0859C242 39.4609 243.422 38.6094 244.531 37.5312C245.656 36.4531 246.516 35.2031 247.109 33.7812C247.719 32.3594 248.023 30.8281 248.023 29.1875C248.023 27.0156 247.586 25.0547 246.711 23.3047C245.836 21.5391 244.5 20.1094 242.703 19.0156C240.922 17.9219 238.812 17.375 236.375 17.375ZM233.539 19.0625H236.211C239.383 19.0625 241.859 20.0312 243.641 21.9688C245.438 23.9062 246.336 26.3125 246.336 29.1875C246.336 32.1094 245.297 34.5312 243.219 36.4531C241.141 38.3594 238.227 39.3125 234.477 39.3125C231.977 39.3125 229.641 38.9688 227.469 38.2812C225.297 37.5938 223.492 36.625 222.055 35.375L223.367 34.3203C224.648 35.3672 226.258 36.1797 228.195 36.7578C230.148 37.3359 232.242 37.625 234.477 37.625C237.773 37.625 240.289 36.8359 242.023 35.2578C243.773 33.6797 244.648 31.6562 244.648 29.1875C244.648 26.75 243.914 24.7344 242.445 23.1406C240.992 21.5469 238.906 20.75 236.188 20.75H233.539C231.258 20.75 229.547 20.125 228.406 18.875C227.266 17.625 226.695 16 226.695 14C226.695 12 227.398 10.375 228.805 9.125C230.227 7.875 232.352 7.25 235.18 7.25C237.164 7.25 239.008 7.48438 240.711 7.95312C242.414 8.40625 243.82 9.0625 244.93 9.92188L243.594 10.9531C241.641 9.60938 238.836 8.9375 235.18 8.9375C232.82 8.9375 231.094 9.40625 230 10.3438C228.922 11.2656 228.383 12.4844 228.383 14C228.383 15.5312 228.781 16.7578 229.578 17.6797C230.391 18.6016 231.711 19.0625 233.539 19.0625ZM233.539 22.4375H236.117C238.398 22.4375 240.109 23.0703 241.25 24.3359C242.391 25.6016 242.961 27.2188 242.961 29.1875C242.961 31.1875 242.25 32.8125 240.828 34.0625C239.422 35.3125 237.305 35.9375 234.477 35.9375C232.492 35.9375 230.641 35.7109 228.922 35.2578C227.219 34.7891 225.812 34.125 224.703 33.2656L226.039 32.2344C227.992 33.5781 230.805 34.25 234.477 34.25C236.836 34.25 238.555 33.7891 239.633 32.8672C240.727 31.9297 241.273 30.7031 241.273 29.1875C241.273 27.6719 240.867 26.4531 240.055 25.5312C239.242 24.5938 237.922 24.125 236.094 24.125H233.539C230.336 24.125 227.828 23.1719 226.016 21.2656C224.219 19.3438 223.32 16.9219 223.32 14C223.32 11.0781 224.359 8.66406 226.438 6.75781C228.516 4.83594 231.43 3.875 235.18 3.875C237.68 3.875 240.008 4.21875 242.164 4.90625C244.336 5.59375 246.141 6.5625 247.578 7.8125L246.266 8.86719C244.984 7.82031 243.375 7.00781 241.438 6.42969C239.5 5.85156 237.414 5.5625 235.18 5.5625C231.883 5.5625 229.359 6.35156 227.609 7.92969C225.875 9.50781 225.008 11.5313 225.008 14C225.008 16.4531 225.742 18.4766 227.211 20.0703C228.68 21.6484 230.789 22.4375 233.539 22.4375ZM233.539 25.8125H236.117C237.32 25.8125 238.188 26.125 238.719 26.75C239.25 27.375 239.516 28.1875 239.516 29.1875C239.516 31.4375 237.836 32.5625 234.477 32.5625C231.305 32.5625 228.922 32.0938 227.328 31.1562L228.688 30.125C229.781 30.625 231.711 30.875 234.477 30.875C235.82 30.875 236.719 30.7266 237.172 30.4297C237.641 30.1328 237.875 29.7188 237.875 29.1875C237.875 28.6719 237.742 28.2656 237.477 27.9688C237.227 27.6562 236.758 27.5 236.07 27.5H233.539C231.383 27.5 229.43 27.1484 227.68 26.4453C225.945 25.7422 224.516 24.7734 223.391 23.5391C222.281 22.3047 221.43 20.875 220.836 19.25C220.242 17.625 219.945 15.875 219.945 14C219.945 12.5 220.156 11.0781 220.578 9.73438C221 8.39063 221.633 7.15625 222.477 6.03125C223.336 4.90625 224.359 3.9375 225.547 3.125C226.75 2.29688 228.172 1.65625 229.812 1.20312C231.469 0.734375 233.258 0.5 235.18 0.5C238.195 0.5 241.016 0.960938 243.641 1.88281C246.266 2.78906 248.453 4.0625 250.203 5.70312L248.844 6.71094C247.25 5.27344 245.258 4.16406 242.867 3.38281C240.477 2.58594 237.914 2.1875 235.18 2.1875C233.039 2.1875 231.102 2.5 229.367 3.125C227.648 3.73438 226.227 4.57812 225.102 5.65625C223.992 6.73438 223.133 7.98437 222.523 9.40625C221.93 10.8281 221.633 12.3594 221.633 14C221.633 16.2031 222.078 18.1875 222.969 19.9531C223.859 21.7188 225.219 23.1406 227.047 24.2188C228.875 25.2812 231.039 25.8125 233.539 25.8125ZM265.273 41H263.586V2.1875H265.273V41ZM261.898 41H260.211V2.1875H261.898V41ZM258.523 41H256.836V2.1875H258.523V41ZM255.148 41H253.461V2.1875H255.148V41ZM277.602 21.5938L287.516 2.1875H289.391L279.477 21.5938L289.391 41H287.516L277.602 21.5938ZM273.828 21.5938L283.742 2.1875H285.617L275.703 21.5938L285.617 41H283.742L273.828 21.5938ZM270.055 21.5938L279.969 2.1875H281.844L271.93 21.5938L281.844 41H279.969L270.055 21.5938ZM266.258 21.5938L276.195 2.1875H278.07L268.133 21.5938L278.07 41H276.195L266.258 21.5938ZM312.711 3.875V2.1875H338.023V3.875H312.711ZM312.711 7.25V5.5625H338.023V7.25H312.711ZM312.711 10.625V8.9375H338.023V10.625H331.273V41H329.586V10.625H327.898V41H326.211V10.625H324.523V41H322.836V10.625H321.148V41H319.461V10.625H312.711ZM355.531 15.0312C353.719 16.8438 352.812 19.0312 352.812 21.5938C352.812 24.1562 353.719 26.3438 355.531 28.1562C357.344 29.9688 359.531 30.875 362.094 30.875C364.656 30.875 366.844 29.9688 368.656 28.1562C370.469 26.3438 371.375 24.1562 371.375 21.5938C371.375 19.0312 370.469 16.8438 368.656 15.0312C366.844 13.2188 364.656 12.3125 362.094 12.3125C359.531 12.3125 357.344 13.2188 355.531 15.0312ZM351.992 25.8594C351.414 24.5 351.125 23.0781 351.125 21.5938C351.125 20.1094 351.414 18.6953 351.992 17.3516C352.57 15.9922 353.352 14.8203 354.336 13.8359C355.32 12.8516 356.484 12.0703 357.828 11.4922C359.188 10.9141 360.609 10.625 362.094 10.625C363.578 10.625 364.992 10.9141 366.336 11.4922C367.695 12.0703 368.867 12.8516 369.852 13.8359C370.836 14.8203 371.617 15.9922 372.195 17.3516C372.773 18.6953 373.062 20.1094 373.062 21.5938C373.062 23.0781 372.773 24.5 372.195 25.8594C371.617 27.2031 370.836 28.3672 369.852 29.3516C368.867 30.3359 367.695 31.1172 366.336 31.6953C364.992 32.2734 363.578 32.5625 362.094 32.5625C360.609 32.5625 359.188 32.2734 357.828 31.6953C356.484 31.1172 355.32 30.3359 354.336 29.3516C353.352 28.3672 352.57 27.2031 351.992 25.8594ZM351.125 15.2422C350 17.1797 349.438 19.2969 349.438 21.5938C349.438 23.8906 350 26.0078 351.125 27.9453C352.266 29.8828 353.805 31.4219 355.742 32.5625C357.68 33.6875 359.797 34.25 362.094 34.25C364.391 34.25 366.508 33.6875 368.445 32.5625C370.383 31.4219 371.914 29.8828 373.039 27.9453C374.18 26.0078 374.75 23.8906 374.75 21.5938C374.75 19.2969 374.18 17.1797 373.039 15.2422C371.914 13.3047 370.383 11.7734 368.445 10.6484C366.508 9.50781 364.391 8.9375 362.094 8.9375C359.797 8.9375 357.68 9.50781 355.742 10.6484C353.805 11.7734 352.266 13.3047 351.125 15.2422ZM349.672 28.7891C348.391 26.5859 347.75 24.1875 347.75 21.5938C347.75 19 348.391 16.6016 349.672 14.3984C350.953 12.1953 352.695 10.4531 354.898 9.17188C357.102 7.89062 359.5 7.25 362.094 7.25C364.688 7.25 367.086 7.89062 369.289 9.17188C371.492 10.4531 373.234 12.1953 374.516 14.3984C375.797 16.6016 376.438 19 376.438 21.5938C376.438 24.1875 375.797 26.5859 374.516 28.7891C373.234 30.9922 371.492 32.7344 369.289 34.0156C367.086 35.2969 364.688 35.9375 362.094 35.9375C359.5 35.9375 357.102 35.2969 354.898 34.0156C352.695 32.7344 350.953 30.9922 349.672 28.7891ZM347.328 15.3594C346.484 17.3438 346.062 19.4219 346.062 21.5938C346.062 23.7656 346.484 25.8438 347.328 27.8281C348.172 29.8125 349.305 31.5234 350.727 32.9609C352.164 34.3828 353.875 35.5156 355.859 36.3594C357.844 37.2031 359.922 37.625 362.094 37.625C364.266 37.625 366.344 37.2031 368.328 36.3594C370.312 35.5156 372.016 34.3828 373.438 32.9609C374.875 31.5234 376.016 29.8125 376.859 27.8281C377.703 25.8438 378.125 23.7656 378.125 21.5938C378.125 19.4219 377.703 17.3438 376.859 15.3594C376.016 13.375 374.875 11.6719 373.438 10.25C372.016 8.8125 370.312 7.67188 368.328 6.82812C366.344 5.98438 364.266 5.5625 362.094 5.5625C359.922 5.5625 357.844 5.98438 355.859 6.82812C353.875 7.67188 352.164 8.8125 350.727 10.25C349.305 11.6719 348.172 13.375 347.328 15.3594ZM346.742 30.4766C345.164 27.7578 344.375 24.7969 344.375 21.5938C344.375 18.3906 345.164 15.4297 346.742 12.7109C348.336 9.99219 350.492 7.84375 353.211 6.26562C355.93 4.67188 358.891 3.875 362.094 3.875C365.297 3.875 368.258 4.67188 370.977 6.26562C373.695 7.84375 375.844 9.99219 377.422 12.7109C379.016 15.4297 379.812 18.3906 379.812 21.5938C379.812 24.7969 379.016 27.7578 377.422 30.4766C375.844 33.1953 373.695 35.3516 370.977 36.9453C368.258 38.5234 365.297 39.3125 362.094 39.3125C358.891 39.3125 355.93 38.5234 353.211 36.9453C350.492 35.3516 348.336 33.1953 346.742 30.4766ZM344.211 14.0703C343.195 16.4609 342.688 18.9688 342.688 21.5938C342.688 24.2188 343.195 26.7344 344.211 29.1406C345.242 31.5312 346.625 33.5938 348.359 35.3281C350.094 37.0625 352.156 38.4453 354.547 39.4766C356.953 40.4922 359.469 41 362.094 41C364.719 41 367.227 40.4922 369.617 39.4766C372.023 38.4453 374.094 37.0625 375.828 35.3281C377.562 33.5938 378.938 31.5312 379.953 29.1406C380.984 26.7344 381.5 24.2188 381.5 21.5938C381.5 18.9688 380.984 16.4609 379.953 14.0703C378.938 11.6641 377.562 9.59375 375.828 7.85938C374.094 6.125 372.023 4.75 369.617 3.73438C367.227 2.70312 364.719 2.1875 362.094 2.1875C359.469 2.1875 356.953 2.70312 354.547 3.73438C352.156 4.75 350.094 6.125 348.359 7.85938C346.625 9.59375 345.242 11.6641 344.211 14.0703ZM342.664 29.7969C341.555 27.1875 341 24.4531 341 21.5938C341 18.7344 341.555 16.0078 342.664 13.4141C343.789 10.8047 345.289 8.5625 347.164 6.6875C349.055 4.79687 351.297 3.29687 353.891 2.1875C356.5 1.0625 359.234 0.5 362.094 0.5C364.953 0.5 367.68 1.0625 370.273 2.1875C372.883 3.29687 375.125 4.79687 377 6.6875C378.891 8.5625 380.391 10.8047 381.5 13.4141C382.625 16.0078 383.188 18.7344 383.188 21.5938C383.188 24.4531 382.625 27.1875 381.5 29.7969C380.391 32.3906 378.891 34.6328 377 36.5234C375.125 38.3984 372.883 39.8906 370.273 41C367.68 42.125 364.953 42.6875 362.094 42.6875C359.234 42.6875 356.5 42.125 353.891 41C351.297 39.8906 349.055 38.3984 347.164 36.5234C345.289 34.6328 343.789 32.3906 342.664 29.7969ZM398.492 41H396.805V2.1875H398.492V41ZM395.117 41H393.43V2.1875H395.117V41ZM391.742 41H390.055V2.1875H391.742V41ZM388.367 41H386.68V2.1875H388.367V41ZM410.82 21.5938L420.734 2.1875H422.609L412.695 21.5938L422.609 41H420.734L410.82 21.5938ZM407.047 21.5938L416.961 2.1875H418.836L408.922 21.5938L418.836 41H416.961L407.047 21.5938ZM403.273 21.5938L413.188 2.1875H415.062L405.148 21.5938L415.062 41H413.188L403.273 21.5938ZM399.477 21.5938L409.414 2.1875H411.289L401.352 21.5938L411.289 41H409.414L399.477 21.5938ZM434.305 41H432.617V2.1875H434.305V41ZM430.93 41H429.242V2.1875H430.93V41ZM427.555 41H425.867V2.1875H427.555V41ZM437.68 32.5625H455.633V34.25H437.68V35.9375H455.633V37.625H437.68V39.3125H455.633V41H435.992V2.1875H455.633V3.875H437.68V5.5625H455.633V7.25H437.68V8.9375H455.633V10.625H437.68V17.375H446.891V19.0625H437.68V20.75H446.891V22.4375H437.68V24.125H446.891V25.8125H437.68V32.5625ZM487.367 22.3203L485.68 19.5312V2.1875H487.367V22.3203ZM490.742 27.8516L489.055 25.0156V2.1875H490.742V27.8516ZM494.117 33.4531L492.43 30.5938V2.1875H494.117V33.4531ZM469.93 20.8672L471.617 23.6562V41H469.93V20.8672ZM466.555 15.3359L468.242 18.1719V41H466.555V15.3359ZM463.18 9.73438L464.867 12.5938V41H463.18V9.73438ZM463.766 2.1875H465.734L489.594 41H487.625L463.766 2.1875ZM467.75 2.1875H469.742L493.578 41H491.562L467.75 2.1875ZM471.711 2.1875H473.68L495.805 38.2578V2.1875H497.492V41C497.492 41 496.828 41 495.5 41L471.711 2.1875ZM461.492 4.92969V41H459.805V2.1875C459.805 2.1875 460.477 2.1875 461.82 2.1875L485.609 41H483.664L461.492 4.92969Z" fill="url(#paint0_linear)"/>
<defs>
<linearGradient id="paint0_linear" x1="26.5" y1="22.5" x2="495.5" y2="22.5" gradientUnits="userSpaceOnUse">
<stop stop-color="#D03494"/>
<stop offset="1" stop-color="#13F8FF"/>
</linearGradient>
</defs>
</svg>
